<svg xmlns="http://www.w3.org/2000/svg" width="1792" height="2165"><path fill="#edafb6" d="m846 135 3 1h20l17 1h14l5 1h10l6 1 2-1 6 2 2 1 4 1 4-1v2h3q5 0 8 2l3-1 4 2 4 1 3-2 3 2 6 1 20 4h4l4 3h8l6 3 2-2v2l3-1v2l6 1v2h3l4 1h3l13 4 5 1 11 5v-2l16 6 8 3 4 2 3 1 4 3 5 1v3h2q5 2 9 5l4 2 6 4 29 16 1 3 2 1 4 4 6 4h2v2h3l6 3v2l2 1 3 4 5 2v2l2 1q4 2 7 6l2 1 9 7 4 3q4 2 4 5l4 3 3 2 6 5 3 2v3h2q4 2 6 5v2h2l1 2 3 1 1 3 4 4 2 2 5 1 5 6 2 1 1 5 3 1 1 3 3 3 2 2v2l2 1 6 7 3 3 1-3 4 1 6-7 4 2 1-3 13 6 4 2q5 1 8 5l7 4 1 3 3-1v2l2 1q3 1 4 5l2 2 2 1v4h2l1 16-2 1q-3 2-3 7v4l8 1 2 1 14-1q4 0 7 2 8 3 16 2v2l5 1h7q8 0 15 4l3 1 7 4v2h2l5 2v2h2l2 6h2q3 4 3 8l1 2 2 1q4 3 5 7l2 4 1 8 2 1q3 2 3 7v4h3q4 8 4 15h2l1 7h2v9l4 2v2l-2 1 2 3 5 10 2 7 2 1 1 10 1 9v3l3 7h2l3 16q0 4 2 7l3 2 2 4-2 4 1 4 2 1q5 2 6 6l3 14 2 1 3 5 5 8-1 2v2l3 3v3l-2 1 2 4h2l1 6 1 3 1 6 4 4 4 8a59 59 0 0 1 12 25l2 1 4 3 1 4 4 4 2 4 1 3 1 5 2 1q3 1 4 5l8 12 2 6h3l1 3c6 13 6 13 15 23l6 10 3 6 2 1 4 9 1 3 3 1 2 3 1 3 2 2 1 2q4 6 4 11l3 1v3h2l5 12h2l1 2 1 2 2 2 5 9 5 7 1 2 6 13 7 13 2 4 4 6 15 29q4 8 5 15l2 1 2 4 3 7 3 7 2 2-1 2q1 5 4 9l1 7 3 5q4 6 4 13v2l2 1 1 6 4 10q2 6 1 11l2 6q3 6 3 11l3 1-1 2v8q3 6 1 7l1 5q4 9 3 18l1 11 1 6-1 6 1 4v10l-1 6v7l-1 12v4l-2 10-2 10q-3 13-9 25l-3 8-4 7h-2l-1 3q-2 4-7 5l-1 2h-4l-3 8-1 3-4 1v5l-2 1-3 1-1 6h-2l-5 3-1 4h-2l-1 2-4 4-2 1v3h-2l-2 6h-3l-3 1-2 5c-7 18-7 18-14 25l-3 8-4 2-2 5q-5 8-11 15l-5 8-9 10-3 4-4 7h-2l-1 2-3 3q-7 5-10 12l-3 1-7 8-9 8q-6 3-10 9h-2l-2 5-4-1q0-8 4-14l14-29-1-1-8 8-2 2-11 12-9 8-2-3-3 1v2l-3 1-3 1-2 6-11 8-9 7-4 2-1 2q-1 3-5 4l-1 3-4 1-8 6-3 2-4 4-5 1-1 1-8 5-10 5-4 2v2h-2l-10 5-6 1v2h-2l-13 4-7 2-2 1-19 2v2l-12 2h-2l-14 1-3 2h-5l-3-1-5-1-9 1 2-6 2 1q5 0 9-4l8-4 1-3h3l3-1 1-2 3-1 2-1 1-3h2v-2h2v-2h3l2-2q4-3 7-4l2-4 2-2 1-4h5l1-2 1-3 5-1q2-3 3-7h4l1-4 4-9h2v-2l3-2 3-7 2-3 2-4 1-3q4-4 5-9h2v-3l4-12 4-8 1-3 3-9 1-2 1-6q2-9 6-15v-5c0-21 0-21 3-27v-14l2-1 2-5-1-1v-7l-1-6h3l-1-9q-2-4 1-9l-1-7 1-8h2l-1-2 1-5-1-4q0-9 2-19 2-7-1-15l-3 1v-26l-4 13v3l-1 2-3 3c-4 5-4 5-5 11v4l-1 1v3l-4 10-1 5-2 1-1 4-1 3-2 1v3l-3 6-1 2v2l-2 1v2l-5 9h-2v6l-3 2-2 4q-2 5-8 9l-2 7-2 2q-5 4-7 10-1 4-6 4 1-9 4-16l3-12 2-5v-4l1-3 2-1 2-11 2-6 1-5v-2l1-3v-5l1-3 2-5 1-4v-6l4-20 2-21v-5l1-4v-9l1-16-1-6v-3l1-13v-4l-1-22v-3l-1-24v-4l-1-1-1-9v-11l-1-3-1-6-1-10-2-14-2-9v-2c-2-10-2-10 0-14l-1-2-1-7-3-13-2-9-1-1v-7l-1-3 1-4v-2l-2-2v-7h-1v-7l-1-3-2-10-5-1-3 4v-3l-1-7-2-6-1 14h-2l-1-2-2 3 2 1-2 6 2 1-1 5 2 1-1 3v8l-4 1 3 1v2q-2 6-3 14c-2 11-2 11-5 14v3l-2 4q-4 3-9 2l-3 1-5-1-5 1h-3l-5 3-9 1q-4-2-5-7l1-7h2l-1-2v-36l-10 22-1 3-1 2-3 3h-2q-7 6-9 16-1 4-6 7h-2l-4 17v2l-1 17-5 19 2 1-1 2-5 29-4 24-2 14-3 11-2 9-1 5-3 12q-1 10-6 18-5 14-9 30-3 15-10 30l-1 5-1 3-2 2-3 6-1 4-2 8h-2l-2 7h-2v2l-4 8-2 2q-2 3-6 3 0-4 3-7l4-12 2-5v-3q0-5 3-9l1-5h2v-3l2-11 3-12 3-1-1-2 3-9v-3l2-11 1-4 1-3 2-1 1-6 1-5v-6l-4 1 1-2 4-17-6 10-1-2q-5 4-8 11l-3 3-4 12h-2l-3 3-1 2-5 8h-2l-2 6h-3l-1 2-4 8-2 2-2 2h-2v2h-2l-1 3-5 7-6 7-2 1-4 5-8 10c-7 5-7 5-12 13l-4 4h-2l-4 5h-2l-1 3-2 1-4 4-6 4h-2v3l-4 2v4h-4l-2 3-3 1-2 3-8 4-4 1-7 2-1 2q-2 4-8 6l-2 1-9 3-3 1-1 3h2q5 0 8 5l1 3h2l2 1 2 4 2 1v2h2v2h2q7 3 11 11 2 4 6 6l2 3 3 1 2 5q4 7 11 13l7 8 4 3v2h2v2l15 9 6 4 2 1 6 4 3 3h2l3 1 1 2 1 2 6 1q8 4 15 10 4 4 10 6l4 6 4 2q6 4 8 10v3h2l1 10 1 3-1 4 2 1 1 6 1 4-2 9h-2l2 4q2 5 1 9l-2 2 4 2-1 2v6l-2 1 1 2-1 4-1 10 6 2 1 3 1 3 3 1 1 2 7 6 3 6 6 2 2 3h10l14-1 9-1h2q11-1 20 3l8 3 2 1 10 7v2l-2 2v5q0 5-5 8l-8 1-2 4-2-1-1 3-12 5-2 1q-7 3-14 2-11 0-21 5-3 4-4 8v4l-3 1-2 8-4 1 4 2-2 4-6 2v-2l-2 1v2q-4 2-8 1-7-2-7-5l-4-2-2-1-1-5-3-1-8-6-4-3-2-1v-2l-6-2v-2h-2a74 74 0 0 1-26-1q-7-2-15-7l-1-2-6-3-4-4q-6-4-14-4v-2l-6 1v-2l-2 1c-9 2-17-4-25-9q-8-4-11-11v-3l-2-1-4-4-9-5-2-1v-3h-2l-9-4-2-2-6-6v-2h-2l-6-4-5-4 12 32q9 21 13 45l3 1-2 6 3 1-1 8 3 1v3h4l1 3q1 12 6 22v2l3 1-1 3q0 5 2 10l4 1 1 7h-2v2l2 1q5 4 5 9l2 9 2 1v7h2l1 2 3 6 1 7 5 1 1 10 3 1 1 5-2 1 2 2v2l1 2 3 1v5h2v6l4 1v3l2 1 1 8 2 11q-7 4-15 4l-1 4-7-2-1 3h-18l1-3h-2l-2 4-6-2-1 1h-7l-22 1h-10l-1 2h-8l-4 3-1 2 1 3-2 6v6l-5 2 2 2v3l-2 1h2l-2 8-1 4v4l-6 1 1 3 3-1v4h-2v3l-2 2v6q-1 7-3 13l-2 16-3 5-4-1v4h2c0 9 0 9-2 12l-3 2 1 2-2 10-3 2h4v4l-1 3-1 5 1 3v5l-1 2-1 4h-3l-1 4h2l-1 5v3l-3 5v9l-2 6v6h-2l-3 2-1 2 4-1-1 9 1 6h-2v3l-1 3-2 1v8l-1 2v9l-1 7q0 7-5 10l2 4h-3l-4 6 1 4-3 2 1 3q1 4-2 7h-5l-8 1-5-1-2-2v2h-3l-6 2-4-1-2-2-3 2q-6 1-13-2l-5 1q-9 3-18-2-5 0-9 2l-5-1-6-1v-2l-5 1-1-3-2-2-7 1v-3l-5-1-3-1-4-1-4-1h-2l-2-1-1-3h-4v-3h-2l-5-3-9-1-1-4h-3l-6-3q-5-5-10-4-4 0-6-3v-2h-2l-6-3-2-7h-2l-1-5v-3l1-5-1-6 5-1-1-1 1-10-3-4v-4h2v-9l1-4-1-3 1-5v-2l1-5 2-1-1-2v-13l3-14v-3l2-2v-6l1-8v-2q0-3 2-5l-2-3q0-8 3-17h2l-1-9-1-2 3-5q3-8 2-16l1-1v-5h2l-1-2v-2l2-2v-11h-2v-7l-2 2-5 4q-5 2-7 5-3 6-7 8h-3v2q-1 5-5 6l-1 3-4 1v5h-2v2l-4 5-11 11-13 13h-2l-1-2-1 4q-2 6-7 10l-4-1-1-2 2 6-2 2h-4v3h-2l-1 2q-1 4-6 6l-2 3-6 3-2 4h-7l-2 3 2 1-1 4q-3 3-8 2v3q-1 5-6 7l-2 3-6 4q-3 1-4 5h-3v2q-2 5-7 7l-3 3-6 2v2l-7 1 1 4h-2v-2l-3 4h-2q-5 0-8 5-1 4-6 5h-7l-3 1q-7 0-12-4v2h-4v-3h-3v-2h2v-2l-2 1h-3l-3-3h-4l-1-3h-2l-4-3-6-4-3-1-1-3-10-5-4-3-5-1-3-1-1-2q-2-5-7-6l-5-2-1-2q-1-5-7-6h-2q-4-2-7-6l-3-2v-5l-1-1-1-10 5-4 2-2v-2h2l-1-7 3-1q4-2 5-6v-3q2-5 6-11l1-3 2-2h2l1-3c3-7 3-7 6-9l2-5 4-7 1-2 4 1v-3l2-8h2l1-3 4-8h2v-3q2-5 6-9l1-2 2-2 1-4 3-7h2l1-4h2v-3l4-2-1-2v-2l5-5q5-4 7-10l1-3 5-2 1-4 3-1 3-5h2l1-5q2-5 6-8l4-4v-2h2l2-5 3-3 3-5q1-5 5-7l-5-1-1-4-6 1v-3l-4 1v3l-4-3q-4-4-8-3v-2l-1-2-2-1q-3-1-4-6l-1-10h2v-3h4l2-7h2l3-3 1-2c4-5 4-5 8-6v-2h2l3-3 1-3 9-11 2-2 7-8 2-3q4-6 10-9v-2l2-2q4-2 4-5 1-3 6-4l4-1v-2h3v-2l2-7h-4l-1-2-2 1h-9l-14-1-5 1-1-2-3 1h-9l-5 1-6-2q-6 0-13 2l-9 2-12 3-9 3-3 6-4 1v2q-4 5-9 9l-2 2-9 6-4 3v2l-4 2-3-1v2l-5-1-1-7-4-1v-14q-5-3-11-3l-2-1-1-2h-4l-12-3 1-4h-5v2h-2l-6-2h-14l-1-3-2 1q-5 1-10-2l-3-1q-3-2-4-5v-2h-2l-5-6q-6-5-13-9-14-7-27-16l-10-8-2-1-10-6q16 22 37 40l-1 2h-7l-2-2h-3l-9-2-11-4-18-6-1-2-2 1q-4 0-8-3-4-2-9-2h-2v-3h-2l-11-4-5-3h-2v-2l-9-3-11-7-5-2-6-4q-4-4-9-3l-3-5-2-1-1 2-9-6q-7-7-16-9l-2-5h-5v-2l-2-1q-6-2-10-8l-11-5 1-4h-2l-2-1-1-2-4-1v-3l-3-4-2-1v-3l-3-1-3-5-6-7-2-4q-1-5-5-7l-2-5 1-3q1-7-5-12l-2-2-2 3h-3l-1-2q-3 2-4 6l-1 5-1 4-1 5v3l1 7-1 5-1 3v2h-2l1 2 1 8v5l-1 15q-5 0-8-3-2-3-2-7l-2-7-4-1v-4l-1-7-3-2v-5l-1-1v-5h-2q-3-5-3-11l-1-6q-2-4 0-9h-3l-2-17-2-7v-7l1-5q0-3-3-7l1-9-1-1v-12h2v-14h-2c-1-12-1-12 2-16q2-7 1-15l2-8v-3l3-15-1-1v-6l2-2v-6l4-13 1-9 2-5 1-7q0-8 2-15l1-5 1-6v-2l2-8q3-7 3-15l2-5v-3l2-6 3-13 2-16 2-8h2v-3l1-7v-3h2l-1-2q0-7 3-14l1-1 1-8q0-3 2-5l1-5 1-3 1-6 1-5 2-8 3-12h2v-2q0-9 4-16l1-9 4-11 4-10 1-2 1-7h3v-5l1-3 1-5h2v-3l4-10 2-5h2l1-7h2v-8l4-5 2-5h2v-3l2-8 5-1-1-3q0-7 2-12l1-7 1-4h2v-6l1-3 2-8 1-9q0-5 3-9v-6l2-7 1-3 1-5 1-2-1-2 1-4v-3l1-3 4-16c2-6 2-6 1-12l1-6q3-7 3-14l3-12 2-9 1-9 3-11 6-37 4-12 1-9 1-2v-6l3-13 2-8q1-7 5-13l-1-3 2-8v-2l3-9 2-12 3-5h2v-2l3-18 1-5 3-2v-7l1-7h2v-2l3-7h2l-1-4h2v-3q0-4 2-8l6-3 9-5q9-6 20-7l4-2 2 1 1-3 7 3 1-2 4-3 2-3h2l1-2 3-6q3-1 2-6h4l3-1 1-3h2l2 2q4-3 4-7l1-3v-2l1-4 2-1v-4l3-12 2-5q1-7 6-11 5-6 7-13h2v-2l3-4 4-6q1-3 5-5l2-7 1-7 3-2q7-5 9-12l4-4h2l2-4h2l1-3 7-7 1-2 7-7 2-3h3l1-3q2-5 6-7l4-6 6-2v-3l4-3 5-5h2v-3l8-6 7-7 3-3h2l1-2 4-3 2-3q2-4 4-3 5-1 7-6 2-4 6-5l2-1 4-4 3-3 2-1q5-1 8-6 7-7 16-11l3-4h3v-3l5-2 4-4 3-1 2-2q3-3 8-4l2-3 3-1 2-3h6l1-2 7-6 3-1 5-3 3-3h2q5-2 9-5h3l1-1q2-2 6-2v-2h2q7-2 10-5 9-5 17-8l2-2 1-1h2l1-4 2 1q4 0 7-3h5v-2h3l7-2 9-2 6-2 19-5c9-1 9-1 16-4h5q4 1 7-2h12l4-1 9-1 3-1q7 0 13 2zm723 643v6l-5-4 9 27h-2q1 10 6 19h2v3q0 5 2 9h5v2l4 9 2 4 1 2-4-1v3h5l3 7-2 1 2 1 2-1v4h2l2 15 4 1 1 8h3l1 2 4 16 2 1 2 11 2 5 1 2 4 4v5h2l-1 3 2 1q2 4 1 8l3-1v2l1 3v3l3 4v7l2 4h3l1 7h2l-1 4h2v3l2 5q3 4 3 7l3 8-1 2v3l4 4 2 7 2 4 4 14 2 6v3h2v2q1 7 5 14l-3-1 4 10 1 3h2l-2 7 2 2 1 7 3 1v3l-3 1h3l-1 3 2 11-2 7 3 3h2l-1 2 1 4-4 2 2 2v3l3 1v2l-3-1v3h2v8l1 3h-3v3h3l-1 2-2 6h2v2h-2v8l5 1 1-3 2-1 1 3 3 1 2-8 3-1 1-6h2q4-3 4-9l3 1 1-6 1-4 2-1 1-5 2-3 1-5 2-5v-5l2-1v-11l-1-5v-7l-3-20-1-9-2-7-1-5-1-2 1-4h-2l-1-8-1-6-4-2 1-3v-4l-3-3-1-7-4-3v-2q0-7-3-12l-6-15-4-8-2-6c-4-12-4-12-11-22l-3-8q-1-4-5-5l-1-6-3-7h-2l-1-2v-2l-1-3-4-5-3-5-1-2-3-7-4-5-3-5q-1-5-5-9l-1-5-4-4h-2v-2h-2l1-3-2-3h-2v-2l-1-3-2-1-2-5-2-1-2-4h-2v-2h-2l2-5-3-1-4-4v-2h-2l1-3-3-3h-2v-3l-3-5-2 1v-2l-2-3q-3-4-4-8l-4-4q-4-2-7-8-4-6-9-11M559 1060l1 16h-2l1 4 1 5v3l3 11q-1 6 3 10l1 7v7h3v3h-2l1 2 2-1-2 4h3l-1 2v2l2 2 1 7 4 7 1 3h2v5h2l-2 3q-1 11 3 20l2 2q2 4 1 8l2 1 2 3 1 2h2l1 9h2l1 3 4 7 1 4 2 1 1 4h2l-1 2-9-1-1-3-1-3-4-1-2-4h-2v-2l-1-2-2-1q-7-4-11-12l-2-12h-2l-1-2-3-4-2-1-1-5-3-9h-2l1-9-3 1v-3l-2-5-1-7-4-5-2-8h-1v4l-2 13-4 2 1 4v3l2 6h2l-1 2 1 7 2 2 1 11 2 8 1 5h2l-1 3 1 1v7h2v10l1 5 3 7v2l3 11 1 3 1 10 3-1v4l3 12 1 4 4 4q3 3 3 8l7 12 2 7h2l2 4 2-1v2q0 4 2 8l4 1 1 4h3v4q0 5 3 10l2-1 5-1 1 5-10-2-1-5h-7v-2h-4v-3h-2l1-3-8-3-2 1v-2l-1-2-2-1-2 1v-3h-2l-3-3-3-1-1-4-2-1v2l-6-5-2 1-1-3q-1-4-6-6l-2-2v3l-3-4-1-3-4 1v-3l-6-2 1-2-2-5q-2-4-7-4l-1-2h-2l-1-5-3-1-1-7-3-1v-3h-3l-1-4h-2v-2h-2v-2q-3-7-8-11t-7-9q-3-8-9-12l-1-4h-2l-1-5h-2l-1-2-2 1-1-9h-4l1-3q1-3-2-5-2-2-5-2l1-3h-2v-2l-1-3v-3l-4-5-3-6-2-2v-7h-2v-3l-1-3-5-2-2-16-1 2-3-1v-5h-3v-6l-2-4q-4-5-5-11l-1-3-2-6h-1l2 23-4-1q0 7 4 12l-2 1 1 3 1 7 1 2 1 7v4l-1 8 2 1 1 4v3l-1 4 2 4q3 5 1 10l1 5q4 13 4 25h1v6l1 5h2v4q0 11 4 20l1 4-3 1 4 2v6l2 5h2l-1 2h-3v-3l-2-2q-6-3-7-9v-7l-4-4-1-3 5 1-1-3-2 1v-3l-6-12q-3-5-2-11l-3-6h-2l-1-3h2l-3-6-1-11-1-3-3-2-2-7 3-1-2-2-2 1 1-2q2-4-1-10v-4h-2v-3l-4-18h-2v-2l-2-6h2l-1-2v-3l-3-7-2-5v-2l-1-2 3 1q0-5-4-8v2h-4l-1 2-1 2-1 2-3 5-1 8q-1 7-5 13l2 3-3-1-1 9-4-1 1 3h2l-4 5-1 6 2 2-3 1v2l-1 3v3l-2 5h-3l1 2-1 5-2 2h2v2l-1 8h-2l-2 1-1 3h2l-1 3q-2 4-2 7l-1 5q-3 4-2 9l1 4h-2l-1 12-3-1-1 5 3-1-1 2v6l-2 1 1 1 1 8h-2l-1 5v3l1 5-3-1 1 3h2v4l-3-1v5l1-2 2 1-1 2-2 5 2 2-2 1v2l2 1 1 7-2 1 3 4-4 2 3 4-1 2v4q0 4-3 7l1 2h2l1 7h2l-1 4h2v2l1 3 1 4 4 9q4 6 5 14l4 7 1 3 10 20-2 1 5 1v3l-2 1 3 4h2a54 54 0 0 1 12 22l3 1 3 4 29 37 3 4q3 1 2 3l1 2 6 2v2h3l1 2 5 7q6 3 9 8l2-1 1 3 4 1 3 1 1 3q7 5 16 3l9-3 1-2 5-1h5v-2h3q6-1 8-6l2-2 3-5q1-5 4-8l2-4q2-5 7-7l3-9 2-7h-2l1-3q3-5 3-11l3-6 8-2v-5l5-1v-2q2-4 7-5l1-3q3-2 7-2l2-6h4l2-2 3-2-1-3h2v-3l7-1 2-6h2q3 0 5-4l1-3q4-5 10-6c5-2 5-2 9-6l2-5 3-2v-3h2v-2l2-1q5-2 6-8l4-1 1-3 2-1v-2l2-1 1-4 1-2v-2l4 1 2-9 3-3 2-1 2-2h2l1-9h3l4-8 3-3 4-8h3l1 2v-2l3-5-2-1q1-4 4-7h-2v-6l7 2-1-3-1-4h2l1-2q3-5 8-8l2-6 3-2 1-3 1-1 4-7 1-2 1-4h3l6-3 6-1v-3l4 1 2-3 3-3h3l1-3q4-7 10-12l3-2v-2h2q5 0 8-4h-2q1-4 4-5l2-1v-2l3 1 1-3-1-2 4 1 4-10 5 1v-2l3-1 2-2q2-2 5-2v-2l1-2 2-1 3-1 1-3 1-2 6-1v-4l3-2 3-8-1-2h2l1-3 1-4 2-1 1-3v-6l-7 1-1-2-2 1-7-2h-13v2h-2l-1-2-6-1h-2l-12-1-1-2v2l-3-1h-7l-1-2-4-1-22-3-10-2-6-1h-5l-1-4-2 1 1 1h-6l-3-1h-3l-1-2-12-3-2-1-8-2h-2l-4-4v3h-3l-1-2-2 1-1-2-5-1-5-1-1-2-6-1-4-2h-7l-1-2-5-1-2-1-2-1-2 1v-2h-5l-1-2-4-1-20-9-2-2-2-1-3-4h-5l1-3-6-5-4 1v-5l-3 1-2-2q-2-3-5-4m547 3-2 1-2 1-1-2v3h-2l-1 1-7 5-2 1-2 1-1-2-1 3-4 2-2 1-2 1-3 1-9 2-1 2h-3l-1 2q-3 2-7 1l-2 1-5 1c-5 1-5 2-8 5h-5q-4 0-6 2-6 6-14 6h-2l-1 2a93 93 0 0 1-26 8l-1-3-2 2 1 2h-6l-1-2-1 3-12 4-4 1h-8l-1 3-6-1v2l-3-1v2h-6l-1 5-3-1-1 3h3l-2 4h2v3l-2 1h5l1 6h2c9 2 9 2 12 6h2l1 2 5 2 2 2h9l1 2 11 13 10 11 4 3 1 3 5 4 3 3 1 2h3l1 3 5 3 2 3 6-1 1 4 4-4 1 3 2 1q5 1 8 7l1 1 6 10q2 4 7 5l2 4 2 3h2l1 2 4 4q3 3 3 8l2-2 3-5 7-9 4-6v-4h3v-2l4-9v-2h2v-3l3-7v-3l3-1 1-5 1-3v-7l4-1-1-2 1-4 2-6q0-5 3-11l10-28 1-4v-9l-2 4q-8 17-20 32l-2 2-4 6-3-1v2l-3 1v3h-2l-2 4h-2l1 4-4 2v2h-2l-1-2-2 8-3-1-6 5v2l-4-1-2 6h-5v2l-3 3-2 1-2 1-4 1 2-1v-2h2v-2l3-1-1-2 3-1 2-5q2-4 6-6l2-4-1-3h3l1-2 3-3 1-3 2-1q4-4 4-8l2-3q3-3 3-7h2v-4l3 1-1-4 3-1 1-4 7-17 1-2 9-24 2-4 1-4 6-18c2-5 2-5 1-11zm14 56 1 2Zm-540 41 1 2Zm122 110 1 2Zm-162 17 1 2Zm158 587 1 2Z"/><path fill="#edafb6" d="M452 1288h5v10h-3l1-2-1-5h-3zM449 1278l5 2-1 5h-3l-1-2-3-1v-2h2zM605 1231h6l1 5-7-1zM173 1457l4 2v4h-3zM1215 1238h3v3h-2v3h-2v-5zM613 1342h4l2 4-6-1zM617 1243l6 2 1 3-7-3zM425 1540l3 1v3h-4zM613 1236h2l1 5-3-1zM187 1389h3l-1 3h-3zM182 1476l3 1v2l-3-1zM584 1560v3l-2-1zM990 1962h2v2h-2zM1137 1727h2v2h-2zM190 1483h2v2h-2zM180 1473h2v2h-2zM600 1336h2v2h-2zM460 1303h2v2h-2zM458 1300h2v2h-2zM617 1240h2v2h-2zM1592 847h2v2h-2zM386 476h2v2h-2zM1313 931l2 1-2 1zM339 499l1 2-2-1zM808 1994l2 1ZM557 1914l2 1ZM1004 1886l2 1ZM1129 1711l2 1ZM430 1544l2 1ZM178 1462l2 1ZM192 1388l2 1ZM1165 1356l2 1ZM439 1136l2 1ZM1445 412l2 1Z"/></svg>